<?xml version="1.0" encoding="UTF-8" standalone="no"?>
<!-- Created with Inkscape (http://www.inkscape.org/) -->

<svg
   xmlns:dc="http://purl.org/dc/elements/1.1/"
   xmlns:cc="http://creativecommons.org/ns#"
   xmlns:rdf="http://www.w3.org/1999/02/22-rdf-syntax-ns#"
   xmlns:svg="http://www.w3.org/2000/svg"
   xmlns="http://www.w3.org/2000/svg"
   version="1.1"
   width="212.59842"
   height="212.59842"
   id="svg3465">
  <defs
     id="defs3467" />
  <metadata
     id="metadata3470">
    <rdf:RDF>
      <cc:Work
         rdf:about="">
        <dc:format>image/svg+xml</dc:format>
        <dc:type
           rdf:resource="http://purl.org/dc/dcmitype/StillImage" />
        <dc:title></dc:title>
      </cc:Work>
    </rdf:RDF>
  </metadata>
  <g
     transform="translate(0,-839.76245)"
     id="layer1">
    <g
       transform="matrix(0.90669404,0,0,-0.90669404,74.796621,961.60888)"
       id="g3079">
      <path
         d="m 0,0 -32.377,0 c -2.027,0 -3.695,-1.595 -3.787,-3.619 l -2.962,-65.39 c -0.057,-1.266 1.231,-2.154 2.394,-1.651 l 34.409,16.904 c 1.033,0.447 1.194,1.844 0.291,2.515 l -30.689,20.871"
         id="path3081"
         style="fill:none;stroke:#ff3000;stroke-width:20;stroke-linecap:round;stroke-linejoin:miter;stroke-miterlimit:10;stroke-opacity:1;stroke-dasharray:none" />
    </g>
    <g
       transform="matrix(0.90669404,0,0,-0.90669404,89.530394,1004.6769)"
       id="g3083">
      <path
         d="m 0,0 11.583,0 c 1.457,0 2.764,0.895 3.291,2.253 l 17.024,43.906 c 0.358,0.923 1.683,0.868 1.962,-0.082 l 21.307,-71.91"
         id="path3085"
         style="fill:none;stroke:#ff3000;stroke-width:20;stroke-linecap:round;stroke-linejoin:miter;stroke-miterlimit:10;stroke-opacity:1;stroke-dasharray:none" />
    </g>
    <g
       transform="matrix(0.90669404,0,0,-0.90669404,88.397033,1039.8112)"
       id="g3087">
      <path
         d="m 0,0 c 0.098,0.295 5.429,13.962 11.857,30.425 0.761,1.949 2.64,3.236 4.733,3.236 l 16.16,0"
         id="path3089"
         style="fill:none;stroke:#ff3000;stroke-width:20;stroke-linecap:round;stroke-linejoin:miter;stroke-miterlimit:10;stroke-opacity:1;stroke-dasharray:none" />
    </g>
    <g
       transform="matrix(0.90669404,0,0,-0.90669404,155.94576,1034.1445)"
       id="g3091">
      <path
         d="m 0,0 4.213,78.933 c 0.13,2.064 2.416,3.241 4.172,2.148 L 40.303,59.207 c 1.77,-1.102 1.704,-3.7 -0.12,-4.71 L 7.25,38.25"
         id="path3093"
         style="fill:none;stroke:#ff3000;stroke-width:20;stroke-linecap:round;stroke-linejoin:miter;stroke-miterlimit:10;stroke-opacity:1;stroke-dasharray:none" />
    </g>
    <g
       transform="matrix(0.90669404,0,0,-0.90669404,23.592759,890.99298)"
       id="g3095">
      <path
         d="m 0,0 30.689,-20.871 c 0.903,-0.671 0.742,-2.068 -0.291,-2.516 L -4.011,-40.29 c -1.163,-0.503 -2.451,0.385 -2.394,1.651 l 2.962,65.389 c 0.092,2.025 1.76,3.62 3.787,3.62 L 32.721,16.505"
         id="path3097"
         style="fill:none;stroke:#ff3000;stroke-width:20;stroke-linecap:round;stroke-linejoin:round;stroke-miterlimit:10;stroke-opacity:1;stroke-dasharray:none" />
    </g>
    <g
       transform="matrix(0.90669404,0,0,-0.90669404,117.48309,900.6693)"
       id="g3099">
      <path
         d="m 0,0 -12.044,0 c -1.515,0 -2.874,0.895 -3.421,2.253 l -17.702,43.906 c -0.372,0.923 -1.749,0.868 -2.04,-0.082 l -22.154,-71.91"
         id="path3101"
         style="fill:none;stroke:#ff3000;stroke-width:20;stroke-linecap:round;stroke-linejoin:round;stroke-miterlimit:10;stroke-opacity:1;stroke-dasharray:none" />
    </g>
    <g
       transform="matrix(0.90669404,0,0,-0.90669404,118.66152,935.8037)"
       id="g3103">
      <path
         d="m 0,0 c -0.102,0.295 -5.645,13.962 -12.328,30.425 -0.791,1.949 -2.746,3.236 -4.922,3.236 l -16.802,0"
         id="path3105"
         style="fill:none;stroke:#ff3000;stroke-width:20;stroke-linecap:round;stroke-linejoin:round;stroke-miterlimit:10;stroke-opacity:1;stroke-dasharray:none" />
    </g>
    <g
       transform="matrix(0.90669404,0,0,-0.90669404,134.41011,935.41382)"
       id="g3107">
      <path
         d="m 0,0 4.213,78.933 c 0.13,2.064 2.416,3.241 4.172,2.148 L 40.303,59.207 c 1.77,-1.102 -0.664,-35.033 -2.488,-36.043 l -30.666,-18"
         id="path3109"
         style="fill:none;stroke:#ff3000;stroke-width:20;stroke-linecap:round;stroke-linejoin:round;stroke-miterlimit:10;stroke-opacity:1;stroke-dasharray:none" />
    </g>
    <g
       transform="matrix(0.90669404,0,0,-0.90669404,53.260964,876.02816)"
       id="g3111">
      <path
         d="M 0,0 -30.018,-16.683"
         id="path3113"
         style="fill:none;stroke:#ff3000;stroke-width:20;stroke-linecap:round;stroke-linejoin:round;stroke-miterlimit:10;stroke-opacity:1;stroke-dasharray:none" />
    </g>
    <g
       transform="matrix(0.90669404,0,0,-0.90669404,76.820359,960.6235)"
       id="g3123">
      <path
         d="m 0,0 -32.377,0 c -2.027,0 -3.695,-1.595 -3.787,-3.619 l -2.962,-65.39 c -0.057,-1.266 1.231,-2.154 2.394,-1.651 l 34.409,16.904 c 1.033,0.447 1.194,1.844 0.291,2.515 l -30.689,20.871"
         id="path3125"
         style="fill:none;stroke:#ffa52e;stroke-width:3;stroke-linecap:round;stroke-linejoin:miter;stroke-miterlimit:10;stroke-opacity:1;stroke-dasharray:none" />
    </g>
    <g
       transform="matrix(0.90669404,0,0,-0.90669404,91.554133,1003.6914)"
       id="g3127">
      <path
         d="m 0,0 11.583,0 c 1.457,0 2.764,0.895 3.291,2.253 l 17.024,43.906 c 0.358,0.923 1.683,0.868 1.962,-0.082 l 21.307,-71.91"
         id="path3129"
         style="fill:none;stroke:#ffa52e;stroke-width:3;stroke-linecap:round;stroke-linejoin:miter;stroke-miterlimit:10;stroke-opacity:1;stroke-dasharray:none" />
    </g>
    <g
       transform="matrix(0.90669404,0,0,-0.90669404,90.420771,1038.8259)"
       id="g3131">
      <path
         d="m 0,0 c 0.098,0.295 5.429,13.962 11.857,30.425 0.761,1.949 2.64,3.236 4.733,3.236 l 16.16,0"
         id="path3133"
         style="fill:none;stroke:#ffa52e;stroke-width:3;stroke-linecap:round;stroke-linejoin:miter;stroke-miterlimit:10;stroke-opacity:1;stroke-dasharray:none" />
    </g>
    <g
       transform="matrix(0.90669404,0,0,-0.90669404,157.9695,1033.159)"
       id="g3135">
      <path
         d="m 0,0 4.213,78.933 c 0.13,2.064 2.416,3.241 4.172,2.148 L 40.303,59.207 c 1.77,-1.102 1.704,-3.7 -0.12,-4.71 L 7.25,38.25"
         id="path3137"
         style="fill:none;stroke:#ffa52e;stroke-width:3;stroke-linecap:round;stroke-linejoin:miter;stroke-miterlimit:10;stroke-opacity:1;stroke-dasharray:none" />
    </g>
    <g
       transform="matrix(0.90669404,0,0,-0.90669404,23.316581,889.53801)"
       id="g3139">
      <path
         d="m 0,0 30.689,-20.871 c 0.903,-0.671 0.742,-2.068 -0.291,-2.516 L -4.011,-40.29 c -1.163,-0.503 -2.451,0.385 -2.394,1.651 l 2.962,65.389 c 0.092,2.025 1.76,3.62 3.787,3.62 L 32.721,16.505"
         id="path3141"
         style="fill:none;stroke:#ffa52e;stroke-width:3;stroke-linecap:round;stroke-linejoin:miter;stroke-miterlimit:10;stroke-opacity:1;stroke-dasharray:none" />
    </g>
    <g
       transform="matrix(0.90669404,0,0,-0.90669404,117.20691,899.21433)"
       id="g3143">
      <path
         d="m 0,0 -12.044,0 c -1.515,0 -2.874,0.895 -3.421,2.253 l -17.702,43.906 c -0.372,0.923 -1.749,0.868 -2.04,-0.082 l -22.154,-71.91"
         id="path3145"
         style="fill:none;stroke:#ffa52e;stroke-width:3;stroke-linecap:round;stroke-linejoin:miter;stroke-miterlimit:10;stroke-opacity:1;stroke-dasharray:none" />
    </g>
    <g
       transform="matrix(0.90669404,0,0,-0.90669404,118.38534,934.34873)"
       id="g3147">
      <path
         d="m 0,0 c -0.102,0.295 -5.645,13.962 -12.328,30.425 -0.791,1.949 -2.746,3.236 -4.922,3.236 l -16.802,0"
         id="path3149"
         style="fill:none;stroke:#ffa52e;stroke-width:3;stroke-linecap:round;stroke-linejoin:miter;stroke-miterlimit:10;stroke-opacity:1;stroke-dasharray:none" />
    </g>
    <g
       transform="matrix(0.90669404,0,0,-0.90669404,134.13389,933.95885)"
       id="g3151">
      <path
         d="m 0,0 4.213,78.933 c 0.13,2.064 2.416,3.241 4.172,2.148 L 40.303,59.207 c 1.77,-1.102 -0.664,-35.033 -2.488,-36.043 l -30.666,-18"
         id="path3153"
         style="fill:none;stroke:#ffa52e;stroke-width:3;stroke-linecap:round;stroke-linejoin:miter;stroke-miterlimit:10;stroke-opacity:1;stroke-dasharray:none" />
    </g>
    <g
       transform="matrix(0.90669404,0,0,-0.90669404,52.984786,874.57329)"
       id="g3155">
      <path
         d="M 0,0 -30.018,-16.683"
         id="path3157"
         style="fill:none;stroke:#ffa52e;stroke-width:3;stroke-linecap:round;stroke-linejoin:miter;stroke-miterlimit:10;stroke-opacity:1;stroke-dasharray:none" />
    </g>
  </g>
</svg>
